<svg width="1800" height="225" viewBox="0 0 1800 225" fill="none" xmlns="http://www.w3.org/2000/svg">
<path d="M1748.52 192.73C1715.98 192.73 1696.81 179.58 1696.14 153.725H1722.89C1723.78 167.767 1733.58 174.676 1748.52 174.676C1763.9 174.676 1773.93 168.659 1773.93 158.183C1773.93 148.153 1767.24 144.81 1751.64 141.69L1740.72 139.461C1713.3 133.889 1698.37 126.98 1698.37 104.246C1698.37 83.5175 1718.65 68.1387 1747.18 68.1387C1775.04 68.1387 1796.88 79.7285 1797.77 104.023H1771.03C1770.36 92.2099 1759.44 86.1921 1747.18 86.1921C1734.92 86.1921 1724.45 91.5413 1724.45 101.348C1724.45 110.932 1731.13 114.052 1745.4 116.95L1756.32 119.179C1783.51 124.751 1800 130.991 1800 155.286C1800 176.905 1779.72 192.73 1748.52 192.73Z" fill="black"/>
<path d="M1564.27 130.321C1564.27 88.1967 1589.01 68.1373 1618.87 68.1373C1635.37 68.1373 1649.63 76.6069 1655.43 85.0764H1655.65V30.916H1682.4V161.079L1683.06 190.054H1656.54L1655.65 173.561H1655.43C1650.75 183.813 1636.48 192.728 1617.98 192.728C1585.22 192.728 1564.27 169.772 1564.27 130.321ZM1657.88 130.321C1657.88 104.913 1645.84 87.9738 1624.67 87.9738C1603.72 87.9738 1591.01 104.913 1591.01 130.321C1591.01 155.73 1603.72 172.892 1624.67 172.892C1645.84 172.892 1657.88 155.73 1657.88 130.321Z" fill="black"/>
<path d="M1558.63 68.582H1565.1V91.7618H1554.18C1535.45 91.7618 1525.2 104.912 1525.2 128.092V190.053H1498.46V89.0872L1498.01 70.8108H1524.76L1525.2 89.9787H1525.87C1528.77 79.949 1539.91 68.582 1558.63 68.582Z" fill="black"/>
<path d="M1414.87 192.73C1389.68 192.73 1370.96 177.351 1370.96 155.508C1370.96 129.208 1391.46 123.191 1415.53 119.179L1452.53 113.161V107.366C1452.53 93.7701 1444.73 85.9692 1428.02 85.9692C1412.19 85.9692 1402.61 93.1015 1401.72 105.806H1375.42C1376.08 81.7345 1394.81 68.1387 1428.24 68.1387C1453.65 68.1387 1468.36 74.6023 1474.82 87.9752C1477.27 93.1015 1478.61 100.011 1478.61 107.143V161.972C1478.61 174.676 1478.83 177.574 1479.95 190.055H1453.87C1453.65 185.82 1453.65 182.477 1453.65 178.688H1452.98C1446.74 185.598 1434.7 192.73 1414.87 192.73ZM1421.78 174.453C1439.61 174.453 1453.2 163.309 1453.2 146.816V130.1L1421.11 136.118C1408.4 138.347 1398.15 142.581 1398.15 155.063C1398.15 167.544 1408.18 174.453 1421.78 174.453Z" fill="black"/>
<path d="M1329.97 120.288L1344.45 70.8086H1371.2L1333.31 190.051H1305.45L1292.52 135.444C1289.18 122.071 1287.4 112.933 1284.72 97.5544H1283.83C1281.16 112.933 1279.37 122.071 1276.25 135.444L1263.32 190.051H1235.46L1197.57 70.8086H1224.32L1238.58 120.288C1242.82 134.999 1245.72 148.149 1249.28 162.859H1249.95C1252.63 148.149 1255.3 135.667 1258.87 120.288L1270.01 70.8086H1298.76L1309.91 120.288C1313.47 135.667 1315.92 148.149 1318.82 162.859H1319.49C1322.83 148.149 1325.73 134.999 1329.97 120.288Z" fill="black"/>
<path d="M1207.58 190.054H1178.6L1165.45 153.947H1097.03L1084.1 190.054H1056.02L1115.08 30.916H1148.52L1207.58 190.054ZM1118.2 94.4374L1105.28 130.99H1157.21L1144.06 94.4374C1139.82 82.8475 1135.37 70.1433 1131.58 57.8847H1130.68C1126.9 69.4746 1122.44 82.8475 1118.2 94.4374Z" fill="black"/>
<path d="M945.126 192.73C919.94 192.73 901.218 177.351 901.218 155.508C901.218 129.208 921.723 123.191 945.795 119.179L982.793 113.161V107.366C982.793 93.7701 974.992 85.9692 958.276 85.9692C942.451 85.9692 932.868 93.1015 931.976 105.806H905.676C906.345 81.7345 925.067 68.1387 958.499 68.1387C983.908 68.1387 998.618 74.6023 1005.08 87.9752C1007.53 93.1015 1008.87 100.011 1008.87 107.143V161.972C1008.87 174.676 1009.09 177.574 1010.21 190.055H984.13C983.907 185.82 983.908 182.477 983.908 178.688H983.239C976.998 185.598 964.962 192.73 945.126 192.73ZM952.035 174.453C969.866 174.453 983.462 163.309 983.462 146.816V130.1L951.367 136.118C938.662 138.347 928.41 142.581 928.41 155.063C928.41 167.544 938.44 174.453 952.035 174.453Z" fill="black"/>
<path d="M861.345 113.384C861.345 93.3244 849.309 88.1981 838.834 88.1981C827.912 88.1981 813.202 95.3303 813.202 119.624V190.055H786.456V113.384C786.456 93.3244 774.421 88.1981 763.945 88.1981C753.024 88.1981 738.314 95.3303 738.314 119.624V190.055H711.568V89.0896L711.122 70.8133H737.645L738.314 86.1921H738.982C743.663 75.2709 759.265 68.1387 772.638 68.1387C791.583 68.1387 803.618 76.6082 808.744 88.4209H809.19C815.654 75.2709 830.364 68.1387 847.526 68.1387C871.82 68.1387 888.09 82.1803 888.09 109.372V190.055H861.345V113.384Z" fill="black"/>
<path d="M636.856 192.73C599.634 192.73 576.9 169.327 576.9 130.323C576.9 91.3184 599.634 68.1387 636.856 68.1387C673.854 68.1387 696.365 91.3184 696.365 130.323C696.365 169.327 673.854 192.73 636.856 192.73ZM636.856 173.339C658.475 173.339 669.619 156.846 669.619 130.323C669.619 103.8 658.475 87.5294 636.856 87.5294C615.236 87.5294 603.646 103.8 603.646 130.323C603.646 156.846 615.236 173.339 636.856 173.339Z" fill="black"/>
<path d="M571.266 68.582H577.73V91.7618H566.808C548.086 91.7618 537.834 104.912 537.834 128.092V190.053H511.088V89.0872L510.642 70.8108H537.388L537.834 89.9787H538.502C541.4 79.949 552.544 68.582 571.266 68.582Z" fill="black"/>
<path d="M447.949 68.1373C474.026 68.1373 491.188 84.1848 491.188 112.268V190.054H464.443V116.057C464.443 98.2264 455.304 88.4196 439.703 88.4196C420.981 88.4196 409.614 102.238 409.614 122.966V190.054H382.868V30.916H409.614V88.1967H410.282C415.408 77.9441 429.227 68.1373 447.949 68.1373Z" fill="black"/>
<path d="M341.504 140.128H369.81C366.689 173.783 339.275 193.843 300.716 193.843C247.893 193.843 224.713 158.627 224.713 110.485C224.713 62.3423 250.568 27.127 300.716 27.127C339.721 27.127 366.466 44.2889 368.918 78.6127H340.612C337.715 56.9932 319.215 49.638 300.716 49.638C271.073 49.638 252.574 71.9262 252.574 110.485C252.574 149.043 271.073 171.332 300.716 171.332C319.215 171.332 338.606 162.194 341.504 140.128Z" fill="black"/>
<path d="M86.8271 104.928V224.735H77.7666V104.928H86.8271Z" fill="black"/>
<path d="M121.386 84.9414V204.762H112.326V84.9414H121.386Z" fill="black"/>
<path d="M155.934 64.957V184.764H146.873V64.957H155.934Z" fill="black"/>
<path d="M190.493 51.1816V170.989H181.432V51.1816H190.493Z" fill="black"/>
<path d="M9.06534 51.1816V170.989H0.00488281V51.1816H9.06534Z" fill="black"/>
<path d="M43.6234 39.9707V159.778H34.563V39.9707H43.6234Z" fill="black"/>
<path d="M78.1732 19.9844V139.792H69.1128V19.9844H78.1732Z" fill="black"/>
<path d="M112.732 0V119.807H103.672V0H112.732Z" fill="black"/>
<path d="M34.9882 74.9062V194.727H25.9277V74.9062H34.9882Z" fill="black"/>
<path d="M69.5473 54.9258V174.733H60.4868V54.9258H69.5473Z" fill="black"/>
<path d="M104.102 34.9414V154.749H95.042V34.9414H104.102Z" fill="black"/>
<path d="M138.662 14.957V134.764H129.602V14.957H138.662Z" fill="black"/>
<path d="M60.9071 89.9375V209.745H51.8467V89.9375H60.9071Z" fill="black"/>
<path d="M95.454 69.9531V189.774H86.3936V69.9531H95.454Z" fill="black"/>
<path d="M130.015 49.9629V169.77H120.954V49.9629H130.015Z" fill="black"/>
<path d="M164.573 29.9824V149.79H155.512V29.9824H164.573Z" fill="black"/>
</svg>
